HIERARCHY
ROOT Hips
{
	OFFSET -14.64140 90.27770 -84.91600
	CHANNELS 6 Xposition Yposition Zposition Zrotation Xrotation Yrotation
	JOINT Spine
	{
		OFFSET 0.00000 13.20850 -1.60436
		CHANNELS 3 Zrotation Xrotation Yrotation
		JOINT Spine1
		{
			OFFSET 0.00000 8.61716 0.00000
			CHANNELS 3 Zrotation Xrotation Yrotation
			JOINT Spine2
			{
				OFFSET 0.00000 8.61717 0.00000
				CHANNELS 3 Zrotation Xrotation Yrotation
				JOINT Spine3
				{
					OFFSET 0.00000 8.61717 0.00000
					CHANNELS 3 Zrotation Xrotation Yrotation
					JOINT Neck
					{
						OFFSET 0.00000 11.07920 1.10792
						CHANNELS 3 Zrotation Xrotation Yrotation
						JOINT Neck1
						{
							OFFSET 0.00000 7.08032 0.00000
							CHANNELS 3 Zrotation Xrotation Yrotation
							JOINT Head
							{
								OFFSET 0.00000 7.08031 0.00000
								CHANNELS 3 Zrotation Xrotation Yrotation
								End site
								{
									OFFSET 0.00000 0.00000 0.00000
								}
							}
						}
					}
					JOINT RightShoulder
					{
						OFFSET -0.01000 7.91373 5.19711
						CHANNELS 3 Zrotation Xrotation Yrotation
						JOINT RightArm
						{
							OFFSET -18.41580 0.00000 0.00000
							CHANNELS 3 Zrotation Xrotation Yrotation
							JOINT RightForeArm
							{
								OFFSET -29.11090 0.00000 0.00000
								CHANNELS 3 Zrotation Xrotation Yrotation
								JOINT RightHand
								{
									OFFSET -24.65040 0.00000 0.00000
									CHANNELS 3 Zrotation Xrotation Yrotation
									JOINT RightHandThumb1
									{
										OFFSET -5.35114 -0.85590 3.97906
										CHANNELS 3 Zrotation Xrotation Yrotation
										JOINT RightHandThumb2
										{
											OFFSET -4.52789 0.00000 0.00000
											CHANNELS 3 Zrotation Xrotation Yrotation
											JOINT RightHandThumb3
											{
												OFFSET -2.46976 0.00000 0.00000
												CHANNELS 3 Zrotation Xrotation Yrotation
												End site
												{
													OFFSET 0.00000 0.00000 0.00000
												}
											}
										}
									}
									JOINT RightHandIndex1
									{
										OFFSET -14.26970 0.00000 2.88139
										CHANNELS 3 Zrotation Xrotation Yrotation
										JOINT RightHandIndex2
										{
											OFFSET -5.48836 0.00000 0.00000
											CHANNELS 3 Zrotation Xrotation Yrotation
											JOINT RightHandIndex3
											{
												OFFSET -3.01859 0.00000 0.00000
												CHANNELS 3 Zrotation Xrotation Yrotation
												End site
												{
													OFFSET 0.00000 0.00000 0.00000
												}
											}
										}
									}
									JOINT RightHandMiddle1
									{
										OFFSET -14.26970 0.00000 -0.09147
										CHANNELS 3 Zrotation Xrotation Yrotation
										JOINT RightHandMiddle2
										{
											OFFSET -6.17441 0.00000 0.00000
											CHANNELS 3 Zrotation Xrotation Yrotation
											JOINT RightHandMiddle3
											{
												OFFSET -3.56743 0.00000 0.00000
												CHANNELS 3 Zrotation Xrotation Yrotation
												End site
												{
													OFFSET 0.00000 0.00000 0.00000
												}
											}
										}
									}
									JOINT RightHandRing1
									{
										OFFSET -12.69180 0.00000 -3.06433
										CHANNELS 3 Zrotation Xrotation Yrotation
										JOINT RightHandRing2
										{
											OFFSET -5.62556 0.00000 0.00000
											CHANNELS 3 Zrotation Xrotation Yrotation
											JOINT RightHandRing3
											{
												OFFSET -3.56744 0.00000 0.00000
												CHANNELS 3 Zrotation Xrotation Yrotation
												End site
												{
													OFFSET 0.00000 0.00000 0.00000
												}
											}
										}
									}
									JOINT RightHandPinky1
									{
										OFFSET -11.11390 0.00000 -6.03719
										CHANNELS 3 Zrotation Xrotation Yrotation
										JOINT RightHandPinky2
										{
											OFFSET -4.52789 0.00000 0.00000
											CHANNELS 3 Zrotation Xrotation Yrotation
											JOINT RightHandPinky3
											{
												OFFSET -2.46976 0.00000 0.00000
												CHANNELS 3 Zrotation Xrotation Yrotation
												End site
												{
													OFFSET 0.00000 0.00000 0.00000
												}
											}
										}
									}
								}
							}
						}
					}
					JOINT LeftShoulder
					{
						OFFSET 0.01000 7.91373 5.19711
						CHANNELS 3 Zrotation Xrotation Yrotation
						JOINT LeftArm
						{
							OFFSET 18.41580 0.00000 0.00000
							CHANNELS 3 Zrotation Xrotation Yrotation
							JOINT LeftForeArm
							{
								OFFSET 29.11090 0.00000 0.00000
								CHANNELS 3 Zrotation Xrotation Yrotation
								JOINT LeftHand
								{
									OFFSET 24.65040 0.00000 0.00000
									CHANNELS 3 Zrotation Xrotation Yrotation
									JOINT LeftHandThumb1
									{
										OFFSET 5.35114 -0.85590 3.97906
										CHANNELS 3 Zrotation Xrotation Yrotation
										JOINT LeftHandThumb2
										{
											OFFSET 4.52789 0.00000 0.00000
											CHANNELS 3 Zrotation Xrotation Yrotation
											JOINT LeftHandThumb3
											{
												OFFSET 2.46977 0.00000 0.00000
												CHANNELS 3 Zrotation Xrotation Yrotation
												End site
												{
													OFFSET 0.00000 0.00000 0.00000
												}
											}
										}
									}
									JOINT LeftHandIndex1
									{
										OFFSET 14.26970 0.00000 2.88139
										CHANNELS 3 Zrotation Xrotation Yrotation
										JOINT LeftHandIndex2
										{
											OFFSET 5.48836 0.00000 0.00000
											CHANNELS 3 Zrotation Xrotation Yrotation
											JOINT LeftHandIndex3
											{
												OFFSET 3.01859 0.00000 0.00000
												CHANNELS 3 Zrotation Xrotation Yrotation
												End site
												{
													OFFSET 0.00000 0.00000 0.00000
												}
											}
										}
									}
									JOINT LeftHandMiddle1
									{
										OFFSET 14.26970 0.00000 -0.09147
										CHANNELS 3 Zrotation Xrotation Yrotation
										JOINT LeftHandMiddle2
										{
											OFFSET 6.17440 0.00000 0.00000
											CHANNELS 3 Zrotation Xrotation Yrotation
											JOINT LeftHandMiddle3
											{
												OFFSET 3.56744 0.00000 0.00000
												CHANNELS 3 Zrotation Xrotation Yrotation
												End site
												{
													OFFSET 0.00000 0.00000 0.00000
												}
											}
										}
									}
									JOINT LeftHandRing1
									{
										OFFSET 12.69180 0.00000 -3.06433
										CHANNELS 3 Zrotation Xrotation Yrotation
										JOINT LeftHandRing2
										{
											OFFSET 5.62556 0.00000 0.00000
											CHANNELS 3 Zrotation Xrotation Yrotation
											JOINT LeftHandRing3
											{
												OFFSET 3.56744 0.00000 0.00000
												CHANNELS 3 Zrotation Xrotation Yrotation
												End site
												{
													OFFSET 0.00000 0.00000 0.00000
												}
											}
										}
									}
									JOINT LeftHandPinky1
									{
										OFFSET 11.11390 0.00000 -6.03719
										CHANNELS 3 Zrotation Xrotation Yrotation
										JOINT LeftHandPinky2
										{
											OFFSET 4.52789 0.00000 0.00000
											CHANNELS 3 Zrotation Xrotation Yrotation
											JOINT LeftHandPinky3
											{
												OFFSET 2.46976 0.00000 0.00000
												CHANNELS 3 Zrotation Xrotation Yrotation
												End site
												{
													OFFSET 0.00000 0.00000 0.00000
												}
											}
										}
									}
								}
							}
						}
					}
					JOINT pCube4
					{
						OFFSET 0.00000 10.91090 1.10792
						CHANNELS 3 Zrotation Xrotation Yrotation
						End site
						{
							OFFSET 0.00000 0.00000 0.00000
						}
					}
				}
			}
		}
	}
	JOINT RightUpLeg
	{
		OFFSET -9.98441 0.00000 0.00000
		CHANNELS 3 Zrotation Xrotation Yrotation
		JOINT RightLeg
		{
			OFFSET 0.00000 -42.11790 0.00000
			CHANNELS 3 Zrotation Xrotation Yrotation
			JOINT RightFoot
			{
				OFFSET 0.00000 -45.00020 -0.00001
				CHANNELS 3 Zrotation Xrotation Yrotation
				JOINT RightForeFoot
				{
					OFFSET 0.00000 -3.74820 0.00000
					CHANNELS 3 Zrotation Xrotation Yrotation
					JOINT RightToeBase
					{
						OFFSET 0.00000 0.06325 14.43120
						CHANNELS 3 Zrotation Xrotation Yrotation
						End site
						{
							OFFSET 0.00000 0.00000 0.00000
						}
					}
				}
			}
		}
	}
	JOINT LeftUpLeg
	{
		OFFSET 9.98441 0.00000 0.00000
		CHANNELS 3 Zrotation Xrotation Yrotation
		JOINT LeftLeg
		{
			OFFSET 0.00000 -42.11800 0.00000
			CHANNELS 3 Zrotation Xrotation Yrotation
			JOINT LeftFoot
			{
				OFFSET 0.00000 -45.00070 0.00000
				CHANNELS 3 Zrotation Xrotation Yrotation
				JOINT LeftForeFoot
				{
					OFFSET 0.00000 -3.74824 0.00000
					CHANNELS 3 Zrotation Xrotation Yrotation
					JOINT LeftToeBase
					{
						OFFSET 0.00000 0.06325 14.43110
						CHANNELS 3 Zrotation Xrotation Yrotation
						End site
						{
							OFFSET 0.00000 0.00000 0.00000
						}
					}
				}
			}
		}
	}
}
MOTION
Frames: 4
Frame Time: 0.050000
0.04413935113709918 0.011740625977971495 0.017599143788639506 -0.022901507774813 -0.007618430870979593 -0.014257818852137935 -4.666109608701616 -0.7875810648983262 -0.43437132026479214 -1.0413993102180379 3.4805543408016684 0.4465322306274379 -1.488259734010688 -2.256865865389703 -0.527767908662833 -0.6678053088921756 -0.07494756550614393 -0.7497209571244022 0.3191728260626105 12.505312469207398 -0.23138966413531165 0.4114443334344098 -0.09561198856858112 -2.8233809363074003 0.5845585705172647 -15.122010733954937 -0.24473473247454677 -7.006116268927442 2.356867167402224 -12.53043907506204 58.4362091978872 14.824064750524176 29.56112061117129 5.795880572117028 0.5363610218122544 102.31438006227711 20.67971944035963 -0.769481881327672 -3.965281968274483 4.531958039440202 -0.1499983359185583 -1.574513631918909 0.02024059756848041 0.006159363460821106 -56.24460612819901 0.041470782369700726 0.0026029140514286235 -56.231046259748084 -38.737489449811534 -0.038052753679099334 0.020936733960515683 -0.031524501386651055 -0.0093557987047793 0.04230664226092527 -0.03728791257523198 0.00704846863257433 -0.02127065330012024 -36.69008894462546 -0.007333706734989039 0.015217032413410287 -0.04697306114745987 -0.03540196330330892 -0.034185730153683196 0.03447414602973779 0.0273648382973147 0.04287687732877811 -19.738708707612066 -0.008022629391836322 -0.03190905850178083 0.018763522219503385 -0.0033659727568301338 0.007217379660937723 -0.028427863702657128 0.005264065014251529 -0.020756420376940147 24.067691459634606 0.03427925719421233 -0.023087020429250277 28.870266573283605 0.014222423781538361 -0.019519095484247625 28.862201371648258 0.017406273255101683 0.010272282663709574 7.136219015887526 1.590918832928222 11.544909711938503 -63.42214961649525 22.661071517027462 -20.839447683105995 -44.60287158704011 5.39788098836646 -94.25685516580084 -11.376099360731722 -2.335904419453636 0.7565244998289784 -0.4747104725290074 0.051806117451979106 -8.078699141790308 -0.04990909368589272 -0.0454684054950432 44.53493302393281 0.026035874547645162 0.04125620312148159 44.54373470543142 12.49183501831134 0.006878360269265828 -0.011725085874569979 -0.03870022889166876 0.0048063742956462934 -0.023985126027558173 -0.0005516893337258142 0.018980589073271954 0.017036113498508525 11.088195946575778 -0.016838715271602158 -0.032259046117186094 0.009674209507108674 -0.0019658525991573675 7.386332644457532e-05 0.0040183767493146 -0.030043219833156328 -0.0021413780693346064 4.8209708632672905 -0.0115991072812099 -0.0331752741743002 -0.013826685980552028 0.024993142008047402 0.046950952369977095 0.0017456159992459716 -0.043404179722574085 0.031381272015057006 -5.593057320244608 -0.02053678301980344 -0.032101485166440846 -6.689004188395845 -0.008329072148737522 0.03865488735040754 -6.699392860253244 -0.019712525869059618 0.0393239619015834 -0.008957188487840832 -0.04452204109989412 -0.021019719374654383 8.043906338218546 3.4963257300863817 -19.232814855136304 0.012366164879403445 10.369333172090391 0.015300587714057614 -5.599997494512007 -15.682739575048325 3.213676919364071 -0.005135187347264333 -0.009274600528142758 0.03162166250993768 0.005550138724285117 4.724785089832398 -0.04762180095706245 12.461452810940909 -8.238845943055066 6.878420744350025 -0.03827620777808089 46.42171556316883 -0.029801809190054394 -4.3464175420705615 -14.746495613067612 -3.8591537603624384 -0.010968207749493752 0.012500913145865237 -0.026606881896591376 0.04484718730406319 -10.783542360494598 0.017757276766367205 
-0.027786248157934314 -0.040957324955374685 -0.007403861041115636 -0.03268421965035051 -0.014943334702363987 -0.004125459361757624 -4.694822729174024 -0.6749431948490975 -0.5265808416324271 -0.9718122035887411 3.424949532028024 0.4152569864469883 -1.4581355703994408 -2.2440205971723124 -0.6947114343322931 -0.7186999887705293 -0.04933468222049746 -0.7901309133099764 0.29741077250836423 12.441469694804466 -0.2419091615011479 0.3722256538304419 -0.039276094659425206 -2.6979991203701617 0.6368473607317185 -15.074268345067875 -0.24611018609628688 -6.882155842760814 2.3563888396657635 -12.54821884216738 59.91330508414085 14.159276082782378 28.362910499274186 6.033924670740396 0.8190973381252149 101.20883390531154 21.25961544858878 -0.711021176031785 -4.437678306619433 4.531994854012802 -0.09114656990869135 -1.6259949627335375 -0.0030267141763277946 -0.0027968641708495195 -56.24913906310312 -0.019834642608979033 -0.02665243566685397 -56.278888957278525 -38.7664018719167 -0.028684986609041934 -0.004899419335226934 -0.045793234774033256 0.019200733630474812 -0.03042270789893408 -0.020089787464103403 0.03835506524173295 -0.009329298180565366 -36.657194921462555 0.0038816790014637825 -0.005517705533023628 -0.04984280223400104 0.02847067955615877 -0.023653516429867526 0.020709869757387204 -0.013834490213466803 -0.00537266359901046 -19.75017758044964 -0.017108476819370312 -0.01735588036236315 -0.008572515158244766 0.02772968033646605 -0.03479888996598043 -0.014603410159088405 0.04979169407577974 0.04620204660395886 24.030247808147532 -0.026283773861955507 -0.00163555222003966 28.86492043493394 0.012745632653666825 0.01672794838246724 28.87721127433791 -0.03068873358635667 -0.02620160273191946 7.2040415765555235 1.6344301353832276 11.48451608432779 -63.5193037208848 22.708131853595667 -21.174454078205887 -43.958920722531715 5.480788954367803 -93.78674578767729 -12.286456396589479 -2.9320322071981266 1.3514928617615836 -0.4532848285907431 0.0925622908025654 -8.125348243421545 0.02132032367283362 -0.021851365521497558 44.52187745151403 -0.021351184433978578 -0.022434568757154556 44.51780263463587 12.418856929391723 -0.0350191921881696 -0.01517133194976792 0.04110957584258492 -0.028951266477964942 0.03194941599988942 -0.046167392574275455 -0.028563247692588993 -0.013874469266679509 11.09275279222551 0.018095150942507018 -0.015136128183360052 -0.016228103573196914 0.02856689505763085 -0.0418112136564284 -0.020737234056044412 0.019429631470263636 0.014192454825001087 4.81860552476568 -0.010648739424693968 0.04941616522853974 0.0012038922891153118 0.028770481820932843 -0.04794582870398279 -0.044203564240939436 0.02048530341308107 0.031173430782115367 -5.575571203305747 0.03472193976203876 0.018411095840135432 -6.679086156554215 0.011341684546830644 0.0036666635653412375 -6.676995738359246 0.010774226325026861 -0.027572979443717036 -0.04666997070940546 0.010918318784589688 0.023753680932561246 8.049695760988062 3.463846005164275 -19.221235241023095 0.037380445876499115 10.423285730752678 -0.021109199750595515 -5.577102948226991 -15.665739502892153 3.1467805472962227 -0.035478075595680766 0.03147643716652215 -0.036403469250479034 0.035080955901310974 4.662126194378332 0.008258960560508115 12.437875664882311 -8.278812565071943 6.837653088573332 -0.024555558686318785 46.397771342480304 0.021814981924088647 -4.363134114907527 -14.712377603501652 -3.830708648640649 0.0011854783118734852 -0.008215388734656322 0.045849856831936396 -0.04638992076628027 -10.786055733238854 -0.03794686636677089 
-0.022729274016131965 0.04975751305161225 0.038864499188367936 0.004758124831315811 0.013864910949166129 0.024894555487489325 -4.647671469319712 -0.5951718953665918 -0.541129071635828 -1.0017824305507788 3.4261001464529057 0.3619790156381249 -1.4416155471685934 -2.256059548799216 -0.8635411148313655 -0.6756245016197638 -0.07117287871892118 -0.8057240295134562 0.18046720516542294 12.453408495732713 -0.2906493857767795 0.35072040435067936 0.03876874444221987 -2.8147664710278257 0.6528605628510705 -14.91196214211865 -0.26120168216280737 -6.849646258929774 2.377837861572487 -12.486470965659397 60.966467488105735 14.482018814920922 28.13083470311671 6.356829035448039 1.1219931762396853 100.29279170749643 21.803820891590746 -0.7309463733286401 -4.7453165387016 4.513711476910273 -0.09660461082345731 -1.6115214781218499 -0.040007112082241926 -0.010349389424890224 -56.21940367904561 0.04341165918688574 0.023975817688661732 -56.216130708698365 -38.7637098096563 -0.014355743572214022 0.04614327918706474 0.0038906427663110365 0.005409186618980934 0.013599555813312392 -0.0026252180998378644 -0.009711406009019869 0.027412291313635075 -36.72999265241364 0.0002621897594371776 0.018951256457944106 -0.007878309233455668 -0.03334253086881508 -0.029841273490959518 0.04072364198421066 0.012192556025186862 0.009952946249841924 -19.79691547608526 0.012587922420927733 -0.04592165322630748 -0.006201273426113209 0.003299795315571156 -0.001796906944943654 0.00718062066949394 0.03661301672183724 0.023414429121672777 24.021655648639083 0.03953790153238882 -0.021031792611310503 28.873296731210313 0.036086775237661045 -0.033059903321200346 28.885115200806666 -0.03356393503407301 0.04527344733882976 7.437769172704373 1.741922801133022 11.402380529039247 -63.017993283601605 23.25340177826296 -22.569611173227422 -39.67820507335791 4.323030173909617 -93.26360057522865 -13.070941566942043 -3.7811106157895735 2.253194707444625 -0.4949063860458055 0.06850079503077698 -8.168361133894276 0.016901306000180534 0.04939691697640885 44.58580958667738 -0.03725141222383621 -0.02208974474877722 44.59724041091671 12.452948225645795 -0.04418437510877186 -0.03626552902745012 -0.0016601158847450084 0.010205288072965626 -0.0018005571964596512 -0.04275094616899617 -0.04579920730052912 -0.011084073622676749 11.120237805980947 0.04033667966324275 0.033639319157323086 0.005013955465843228 0.01368371588846697 -0.016710055877868585 0.005451566712320909 -0.0314959402313927 -0.03755281980431009 4.752988374689388 -0.005461534077324031 -0.0189870208419084 -0.03965483614640643 -0.0009307909510479749 0.007316024761740115 0.003760049099487494 -0.04955426274096128 0.010735414212096547 -5.601678215286695 0.010190909624364202 -0.001860668779598574 -6.673199632004753 -0.013519672486631731 -0.014496677936137672 -6.732309296290339 -0.03603899356350739 0.012679285541473139 0.017196152926820734 -0.028758204024710472 -0.02582026074910993 8.060529370239125 3.4933753221460315 -19.21453433729954 0.018116196974653352 10.359209208569261 0.03900625397601458 -5.634997958875079 -15.646183040235147 3.1836191060736034 0.03432369858129674 0.0068549569723104714 -0.01744580129547946 0.03705263555736194 4.665634701809775 0.0053558865760821 12.46090126269417 -8.228266540615653 6.9266706390217605 -0.00951736560462967 46.41886396646714 0.02037474427026689 -4.322167172121368 -14.765682548456724 -3.8257987229494663 0.002712112983583793 0.02615461551068426 0.03319168115929943 0.02767717813145561 -10.725935391969866 0.02999534958732294 
-0.007975508575168976 0.026520026959332994 -0.00985915685795288 0.040401743933875085 0.01632685228667524 0.038675781084760275 -4.505905552403245 -0.5413139934036305 -0.54004468678792 -0.9809687845980098 3.3880921101408488 0.37472460294838517 -1.4558636363702349 -2.2105483756215847 -0.9686356868553938 -0.6204469467205996 -0.02559753991013388 -0.8519292564940492 0.2412375741986823 12.516534544091193 -0.37761485514936427 0.35769351170706654 0.14805986027897813 -2.9011712622028702 0.6521019910756947 -14.752909649618529 -0.2931374268941602 -6.747811630112183 2.366723954405977 -12.346813003737521 61.64388895976744 15.634065381029677 28.430900774519447 6.85977038754432 1.3230922666087637 99.62527535339153 22.115270586319348 -0.7051692175504074 -5.08177517706688 4.513853701380751 -0.11817676321548531 -1.6167150058812314 -0.014548712895534876 -0.018453665498525545 -56.18937211260747 0.018218093751066828 -0.04378996234391953 -56.25657987038139 -38.78867724069328 -0.011429104486701017 0.005355164603926946 -0.009848235400279431 -0.03562822926945193 -0.0141871533385724 -0.0063382517987347195 0.048382165846122184 0.04953128840011265 -36.72661985865008 -0.007459014720592286 -0.043991050888231326 0.013771446584908729 0.04248383186187065 0.01205181980204145 -0.037999022090555404 0.00999692731392573 -0.028849521443477515 -19.72490897714098 0.0023563989715473213 -0.0014034448054056146 0.00197036778377606 0.04204725372506493 0.015276113661949283 0.015171998821724675 0.03185908352857617 -0.020494780470507522 24.08334018342675 -0.030012890415455372 0.018510216400343702 28.83318198840063 -0.009594382670508909 0.010611383227147742 28.8571910628322 0.03898132819333128 0.04261081724332252 7.703807773405551 1.7994611078441733 11.258286955414782 -62.15810698303923 23.75616927361617 -24.502026081779647 -33.99274207157468 2.741137632311698 -93.37742158246546 -13.635822034389955 -4.838997110188109 3.1488947039952944 -0.4424507341060663 0.09144112604555052 -8.170684174141302 0.04356965501168329 -0.04438033976584469 44.60488251337414 0.02870767204519892 0.04576131652922721 44.612675433301405 12.457514808457185 -0.005466236005150792 -0.028342780220709653 0.03240799252952929 0.018662880115509768 0.031156586148826326 -0.03557685526919534 0.021713905104000345 0.01038749981884661 11.145620961912027 0.020335506870499672 0.019871449767490678 0.01122980661490927 0.008952628874335013 0.017525313628830093 -0.02076546473168266 0.03225392638754271 0.03692682672852971 4.758028717272349 0.025379983861657577 0.02283380899443668 -0.005382146402797979 0.008119054736784473 0.016663721182835718 0.048897579513959 0.008755372463620986 -0.03833735495531011 -5.554192197736377 0.03388035058835028 -0.028425303839168137 -6.762387086066518 0.004623657352554775 0.006648908793958493 -6.68229444684456 0.02997392619942952 0.04811404022947582 0.025761560523485806 0.042166398479841466 -0.03343072478050561 8.01999860240204 3.537251427018716 -19.23457370035644 0.011424991739128285 10.396238737054304 -0.012580162122020296 -5.6271862397705465 -15.64825487633138 3.1785818910752774 0.016911332037616196 0.021944503944525424 0.013511128795105909 -0.003035619491191458 4.679181277412995 -0.007204483494894058 12.432122936065078 -8.217820563267136 6.932951921814016 0.02971472872561095 46.39412157600777 0.0410224692872329 -4.2832567348554385 -14.767122860551387 -3.805542152615069 0.02343902053054052 -0.022925866842320224 -0.013304840517158245 0.045147963062971176 -10.762387046888561 0.03561547343889628 
